<svg xmlns="http://www.w3.org/2000/svg" viewBox="0 0 60 60">
  <path d="M56.66 2a1.09 1.09 0 0 0 0-.18.66.66 0 0 0 0-.14 1.1 1.1 0 0 0 0-.18v-.14-.18l-.16-.08c0-.07-.06-.12-.09-.18V.84L56.2.63l-.07-.08-.21-.18a1.75 1.75 0 0 0-.27-.16 2.16 2.16 0 0 0-.59-.21H55a1.89 1.89 0 0 0-.53 0h-.09a1.69 1.69 0 0 0-.38.2L4.35 25.41a1.88 1.88 0 0 0 .05 3.37L15.21 34a1.87 1.87 0 0 0 .8.18 1.92 1.92 0 0 0 1.21-.43l23.17-18.1L22.68 35.9a1.86 1.86 0 0 0-.46 1.23v21A1.87 1.87 0 0 0 23.66 60a2.2 2.2 0 0 0 .44 0 1.89 1.89 0 0 0 1.68-1l7-14 11.9 7.55a1.89 1.89 0 0 0 2.86-1.25l9.08-49a.61.61 0 0 0 .04-.3z"/>
</svg>
